# xmcd
#
# Track frame offsets: 
#        150
#        26239
#        48655
#        71198
#        93031
#        115774
#        135266
#        154899
#        174050
#        206793
#        228172
#
# Disc length: 3302 seconds
#
# Revision: 0
# Processed by: cddbd v1.5.2PL0 Copyright (c) Steve Scherf et al.
# Submitted via: ExactAudioCopyFreeDBPlugin 1.0
#
DISCID=8c0ce40b
DTITLE=Bobby Murray - I'm Sticking With You
DYEAR=2013
DGENRE=Blues
TTITLE0=Finders, Keepers
TTITLE1=I'm Stickin' With You
TTITLE2=Ooowee
TTITLE3=Comin' Atcha!
TTITLE4=Rock My Soul
TTITLE5=Shake It Baby, Shake It
TTITLE6=Baby Needs Some Lovin' Too
TTITLE7=Baby, What Took Your Love Away
TTITLE8=Bad Case Of The Blues
TTITLE9=Movin' On Down The Line
TTITLE10=Building Of Love
EXTD=
EXTT0=
EXTT1=
EXTT2=
EXTT3=
EXTT4=
EXTT5=
EXTT6=
EXTT7=
EXTT8=
EXTT9=
EXTT10=
PLAYORDER=
